# xmcd CD database file
#
# Track frame offsets:
#	150
#	21165
#	36831
#	56018
#	76992
#	90536
#	135243
#
# Disc length: 2096 seconds
#
# Revision: 0
# Processed by: cddbd v1.5.2PL0 Copyright (c) Steve Scherf et al.
# Submitted via: CDex 1.51
#
DISCID=4c082e07
DTITLE=Arve Henriksen - Norwegian Jazz Launch Europe 2004-2006
DYEAR=2006
DGENRE=Jazz
TTITLE0=children in my garden
TTITLE1=bliss
TTITLE2=opening image
TTITLE3=procession passing
TTITLE4=holography
TTITLE5=6.2
TTITLE6=mmball
EXTD=YEAR: 2006
EXTT0=
EXTT1=
EXTT2=
EXTT3=
EXTT4=
EXTT5=
EXTT6=
PLAYORDER=
